# xmcd
#
# Track frame offsets:
#	150
#	14988
#	28204
#	39670
#	54499
#	69709
#	85697
#	99558
#	114739
#	128588
#	141871
#	154957
#	170652
#	183459
#	196759
#	210623
#	226889
#	241870
#	259102
#	275913
#
# Disc length: 3847 seconds
#
# Revision: 3
# Processed by: cddbd v1.5PL3 Copyright (c) Steve Scherf et al.
# Submitted via: audiograbber 1.83.01
#
DISCID=280f0514
DTITLE=Various Artist - Sertanejo Alternativo Vol. 01
DYEAR=2001
DGENRE=Country
TTITLE0=Joaquim and Manoel - Boate Azul
TTITLE1=Chrystian and Ralf - Quebradas da Noite
TTITLE2=Juliano and Jardel - Sorriso Mudo
TTITLE3=Trio Parada Dura - Telefone Mudo
TTITLE4=Chico Rei and Parana - Canarinho Prisioneiro
TTITLE5=Duduca and Dalvan - Mulher Maravilha
TTITLE6=Peao Carreiro and Praense - Parede e Meia
TTITLE7=Milionario and Jose Rico - Duas Camisas
TTITLE8=Tiao Carreiro and Pardinho - Amargurado
TTITLE9=Joao Mineiro and Marciano - Crises de Amor
TTITLE10=Chitaozinho and Xororo - Fio de Cabelo
TTITLE11=Miltinho Rodrigues - Meu Martirio
TTITLE12=Duo Glacial - Camisa Branca
TTITLE13=Teodoro and Sampaio - Vestido de Seda
TTITLE14=Valderi and Mizael - Explode Coração
TTITLE15=Gian and Giovani - Roupa de Lua de Mel
TTITLE16=Guilherme and Santiago - Do Outro Lado da Cidade
TTITLE17=Matogrosso and Mathias - 24 Horas de Amor
TTITLE18=Lourenço and Lorival - Como Eu Chorei
TTITLE19=Gilberto and Gilmar - Música da Saudade
EXTD=
EXTT0=
EXTT1=
EXTT2=
EXTT3=
EXTT4=
EXTT5=
EXTT6=
EXTT7=
EXTT8=
EXTT9=
EXTT10=
EXTT11=
EXTT12=
EXTT13=
EXTT14=
EXTT15=
EXTT16=
EXTT17=
EXTT18=
EXTT19=
PLAYORDER=
